<svg xmlns="http://www.w3.org/2000/svg" width="480" height="480" viewBox="0 0 480 480">
  <!-- Renkli tema sayfa zemini: pastel konfeti. Opaklik en alttaki grupta (0.55). -->
  <g opacity="0.55" stroke-linecap="round" stroke-linejoin="round">
    <!-- daireler -->
    <circle cx="38" cy="52" r="4" fill="#b69cff"/>
    <circle cx="212" cy="30" r="3" fill="#ff8fab"/>
    <circle cx="402" cy="78" r="4.5" fill="#7bdcb5"/>
    <circle cx="140" cy="168" r="3" fill="#ffc857"/>
    <circle cx="330" cy="196" r="4" fill="#72b7ff"/>
    <circle cx="452" cy="262" r="3" fill="#ffab7a"/>
    <circle cx="70" cy="300" r="4.5" fill="#ff8fab"/>
    <circle cx="250" cy="330" r="3" fill="#7bdcb5"/>
    <circle cx="380" cy="420" r="4" fill="#b69cff"/>
    <circle cx="160" cy="444" r="3.5" fill="#ffc857"/>

    <!-- halkalar -->
    <circle cx="300" cy="96" r="6" fill="none" stroke="#ffab7a" stroke-width="2.2"/>
    <circle cx="96" cy="400" r="6" fill="none" stroke="#72b7ff" stroke-width="2.2"/>
    <circle cx="430" cy="352" r="5" fill="none" stroke="#ffc857" stroke-width="2.2"/>
    <circle cx="190" cy="250" r="5" fill="none" stroke="#ff8fab" stroke-width="2.2"/>

    <!-- arti isaretleri -->
    <path d="M120 60 v12 M114 66 h12" stroke="#7bdcb5" stroke-width="2.4"/>
    <path d="M360 140 v12 M354 146 h12" stroke="#ff8fab" stroke-width="2.4"/>
    <path d="M40 200 v12 M34 206 h12" stroke="#ffab7a" stroke-width="2.4"/>
    <path d="M290 262 v12 M284 268 h12" stroke="#b69cff" stroke-width="2.4"/>
    <path d="M460 160 v12 M454 166 h12" stroke="#72b7ff" stroke-width="2.4"/>
    <path d="M220 400 v12 M214 406 h12" stroke="#ffc857" stroke-width="2.4"/>

    <!-- kisa cizgiler -->
    <path d="M250 150 l14 -8" stroke="#72b7ff" stroke-width="3"/>
    <path d="M60 120 l12 10" stroke="#ffc857" stroke-width="3"/>
    <path d="M410 30 l-10 12" stroke="#b69cff" stroke-width="3"/>
    <path d="M130 340 l14 4" stroke="#ffab7a" stroke-width="3"/>
    <path d="M340 340 l-8 12" stroke="#ff8fab" stroke-width="3"/>
    <path d="M20 450 l14 -6" stroke="#7bdcb5" stroke-width="3"/>
    <path d="M300 460 l12 -10" stroke="#72b7ff" stroke-width="3"/>

    <!-- ucgenler -->
    <path d="M180 100 l8 -13 l8 13 z" fill="#ffab7a"/>
    <path d="M400 230 l7 -12 l7 12 z" fill="#7bdcb5"/>
    <path d="M30 360 l7 -12 l7 12 z" fill="#b69cff"/>
    <path d="M270 410 l8 -13 l8 13 z" fill="#ff8fab"/>
    <path d="M100 240 l7 -12 l7 12 z" fill="#72b7ff"/>
  </g>
</svg>
